<svg width="24" height="24" viewBox="0 0 24 24" fill="none" xmlns="http://www.w3.org/2000/svg">
<path fill-rule="evenodd" clip-rule="evenodd" d="M12.2957 1.25645L11.9998 1.13867L11.7039 1.25645L5.02221 3.91618L4.27894 4.21205L4.21453 4.23768L3.47125 4.53355L1.80394 5.19725L1.2998 5.39792V5.94052V17.8541V18.3867L1.79116 18.5922L11.6912 22.7322L11.9998 22.8613L12.3084 22.7322L22.2084 18.5922L22.6998 18.3867V17.8541V5.94052V5.39792L22.1957 5.19725L12.2957 1.25645ZM4.87067 5.6986L5.61395 5.40273L11.9998 2.86077L20.7985 6.36317L11.9998 9.73972L3.20115 6.36317L4.06299 6.02011L4.80627 5.72424L4.87067 5.6986Z" fill="#25282D"/>
</svg>
