<svg width="24" height="24" viewBox="0 0 24 24" fill="none" xmlns="http://www.w3.org/2000/svg">
<path fill-rule="evenodd" clip-rule="evenodd" d="M11.9998 1.13867L12.2957 1.25645L22.1957 5.19725L22.6998 5.39792V5.94052V17.8541V18.3867L22.2084 18.5922L12.3084 22.7322L11.9998 22.8613L11.6912 22.7322L1.79116 18.5922L1.2998 18.3867V17.8541V5.94052V5.39792L1.80394 5.19725L11.7039 1.25645L11.9998 1.13867ZM2.8998 7.26752V17.3215L11.1998 20.7924V10.5251L2.8998 7.26752ZM12.7998 10.5251V20.7924L21.0998 17.3215V7.26752L12.7998 10.5251ZM19.9178 6.01262L11.9998 2.86077L4.08181 6.01262L11.9998 9.12031L19.9178 6.01262Z" fill="#25282D"/>
</svg>
