<svg width="24" height="24" viewBox="0 0 24 24" fill="none" xmlns="http://www.w3.org/2000/svg">
<path fill-rule="evenodd" clip-rule="evenodd" d="M8.7999 5.8499C8.7999 4.08259 10.2326 2.6499 11.9999 2.6499C12.997 2.6499 13.8443 3.04336 14.4202 3.75008C14.9729 4.42839 15.1999 5.29912 15.1999 6.16031C15.1999 7.36129 14.6843 8.45411 14.0766 9.33767C13.4619 10.2313 12.6867 11.0072 12.0151 11.5973C9.69062 13.6394 5.6525 17.2978 3.61344 19.1499H20.2689L13.5493 13.5979C13.0809 13.2109 13.015 12.5176 13.4019 12.0493C13.7889 11.5809 14.4822 11.515 14.9505 11.9019L22.9956 18.549C23.3763 18.8451 23.5999 19.3009 23.5999 19.7846C23.5999 20.6491 22.8991 21.3499 22.0346 21.3499H1.96308C1.09976 21.3499 0.399902 20.65 0.399902 19.7867C0.399902 19.444 0.512316 19.1156 0.712891 18.8483C0.79144 18.7437 0.868312 18.6727 0.904481 18.6397C1.35659 18.2279 7.46416 12.667 10.563 9.94449C11.1602 9.41981 11.7904 8.77937 12.264 8.0909C12.7445 7.39234 12.9999 6.73725 12.9999 6.16031C12.9999 5.66109 12.867 5.32662 12.7147 5.13983C12.5857 4.98145 12.383 4.8499 11.9999 4.8499C11.4476 4.8499 10.9999 5.29762 10.9999 5.8499V6.1999C10.9999 6.80742 10.5074 7.2999 9.8999 7.2999C9.29238 7.2999 8.7999 6.80742 8.7999 6.1999V5.8499Z" fill="#25282D"/>
</svg>
