<svg width="24" height="24" viewBox="0 0 24 24" fill="none" xmlns="http://www.w3.org/2000/svg">
<path fill-rule="evenodd" clip-rule="evenodd" d="M9.10019 5.84995C9.10019 4.24833 10.3986 2.94995 12.0002 2.94995C12.9136 2.94995 13.673 3.30769 14.1879 3.93964C14.6861 4.55092 14.9002 5.34853 14.9002 6.16036C14.9002 7.27624 14.4201 8.30937 13.8297 9.1677C13.2343 10.0334 12.4788 10.7908 11.8173 11.3719C9.24572 13.6312 4.58005 17.8656 2.83755 19.45H21.1033L13.7406 13.3667C13.4 13.0853 13.352 12.581 13.6335 12.2404C13.9149 11.8998 14.4191 11.8518 14.7598 12.1332L22.8084 18.7833C23.1182 19.0226 23.3002 19.3922 23.3002 19.7846C23.3002 20.4835 22.7337 21.0499 22.0349 21.0499H1.96337C1.26574 21.0499 0.700195 20.4844 0.700195 19.7868C0.700195 19.5098 0.791026 19.2444 0.953119 19.0285C1.01465 18.9465 1.07506 18.8904 1.10678 18.8616C1.55962 18.4491 7.66493 12.8902 10.7613 10.1699C11.3687 9.63632 12.0186 8.97741 12.5114 8.26097C13.0093 7.53717 13.3002 6.82239 13.3002 6.16036C13.3002 5.61178 13.1544 5.20418 12.9476 4.95036C12.7576 4.71721 12.467 4.54995 12.0002 4.54995C11.2822 4.54995 10.7002 5.13198 10.7002 5.84995V6.19995C10.7002 6.64178 10.342 6.99995 9.90019 6.99995C9.45836 6.99995 9.10019 6.64178 9.10019 6.19995V5.84995Z" fill="#25282D"/>
</svg>
