<svg width="24" height="23" viewBox="0 0 24 23" fill="none" xmlns="http://www.w3.org/2000/svg">
<path fill-rule="evenodd" clip-rule="evenodd" d="M17.9594 1.81789C16.7932 1.69307 15.6219 2.00362 14.6708 2.68988C13.7196 3.37614 13.0555 4.38969 12.8062 5.5358C12.781 5.65165 12.7319 5.8084 12.623 5.95098C12.5082 6.10152 12.2658 6.29982 11.9163 6.25991C11.6062 6.22449 11.4259 6.02148 11.3485 5.90796C11.2629 5.78225 11.2176 5.64775 11.1934 5.53362C10.9437 4.38841 10.2799 3.3757 9.32929 2.68988C8.3781 2.00362 7.20686 1.69307 6.04061 1.81789C4.87436 1.94271 3.79538 2.4941 3.01096 3.36611C2.22662 4.23805 1.79212 5.36906 1.79093 6.54185C1.79109 10.3436 4.33807 13.8667 7.03547 16.5107C8.36861 17.8174 9.70449 18.8762 10.7081 19.6086C11.2093 19.9744 11.6261 20.2576 11.9161 20.4485C11.9454 20.4678 11.9734 20.4861 12 20.5034C12.0267 20.4861 12.0546 20.4678 12.0839 20.4485C12.374 20.2576 12.7907 19.9744 13.2919 19.6086C14.2956 18.8762 15.6314 17.8174 16.9646 16.5107C19.6619 13.8668 22.2088 10.3438 22.2091 6.54216C22.208 5.36925 21.7735 4.23813 20.9891 3.36611C20.2047 2.4941 19.1257 1.94271 17.9594 1.81789ZM12 21.3326C11.6379 21.9316 11.6377 21.9315 11.6374 21.9314L11.6367 21.9309L11.6346 21.9296L11.6274 21.9252L11.6013 21.9092C11.5789 21.8954 11.5464 21.8752 11.5046 21.8489C11.4209 21.7962 11.2997 21.7188 11.1464 21.6179C10.8399 21.4161 10.4044 21.1201 9.88284 20.7395C8.84101 19.9792 7.44961 18.877 6.05548 17.5105C3.29842 14.808 0.39093 10.9358 0.39093 6.5415L0.39093 6.54083C0.392371 5.02265 0.954785 3.55854 1.97011 2.42983C2.98544 1.30111 4.38206 0.587405 5.89162 0.42584C7.40119 0.264276 8.91721 0.666248 10.1484 1.55453C10.9291 2.11775 11.5603 2.8513 12 3.69092C12.4397 2.8513 13.071 2.11775 13.8516 1.55453C15.0828 0.666248 16.5989 0.264276 18.1084 0.42584C19.618 0.587405 21.0146 1.30111 22.0299 2.42983C23.0453 3.55854 23.6077 5.02265 23.6091 6.54083L23.6091 6.5415C23.6091 10.9358 20.7016 14.808 17.9446 17.5105C16.5504 18.877 15.159 19.9792 14.1172 20.7395C13.5957 21.1201 13.1602 21.4161 12.8536 21.6179C12.7003 21.7188 12.5792 21.7962 12.4955 21.8489C12.4536 21.8752 12.4212 21.8954 12.3987 21.9092L12.3727 21.9252L12.3654 21.9296L12.3633 21.9309L12.3626 21.9314C12.3624 21.9315 12.3622 21.9316 12 21.3326ZM11.4382 5.23821C11.4375 5.24124 11.4375 5.24031 11.4387 5.23608ZM12 21.3326L12.3622 21.9316L12 22.1505L11.6379 21.9316L12 21.3326Z" fill="#25282D"/>
</svg>
