<svg width="32" height="32" viewBox="0 0 32 32" fill="none" xmlns="http://www.w3.org/2000/svg">
<path fill-rule="evenodd" clip-rule="evenodd" d="M2.0304 15.5529C2.03021 15.5532 2.03006 15.5535 2.81148 16L2.03006 15.5535L1.7749 16L2.03006 16.4465L2.81148 16C2.03006 16.4465 2.03021 16.4468 2.0304 16.4471L2.03092 16.448L2.03252 16.4508L2.03791 16.4602L2.05742 16.4938C2.07429 16.5227 2.09885 16.5645 2.13095 16.6183C2.19513 16.7259 2.28946 16.8816 2.4126 17.0786C2.65883 17.4725 3.02064 18.032 3.48736 18.702C4.41963 20.0402 5.7764 21.8277 7.47283 23.6189C10.8283 27.1618 15.6835 30.9 21.3299 30.9L21.3307 30.9C23.2795 30.8981 25.1588 30.1762 26.6076 28.873C28.0565 27.5697 28.9726 25.777 29.18 23.8393C29.3873 21.9016 28.8714 19.9556 27.7312 18.3752C27.0088 17.3741 26.0683 16.5643 24.9917 16C26.0683 15.4357 27.0088 14.6259 27.7312 13.6247C28.8714 12.0444 29.3873 10.0984 29.18 8.16071C28.9726 6.22303 28.0565 4.43032 26.6076 3.12704C25.1588 1.82377 23.2795 1.10185 21.3307 1.1L21.3299 1.1C15.6835 1.1 10.8283 4.83815 7.47283 8.38112C5.7764 10.1723 4.41963 11.9598 3.48736 13.298C3.02064 13.968 2.65883 14.5275 2.4126 14.9214C2.28946 15.1184 2.19513 15.2741 2.13095 15.3817C2.09885 15.4355 2.07429 15.4773 2.05742 15.5062L2.03791 15.5398L2.03252 15.5492L2.03092 15.552L2.0304 15.5529Z" fill="#25282D"/>
</svg>
