<svg width="24" height="22" viewBox="0 0 24 22" fill="none" xmlns="http://www.w3.org/2000/svg">
<path d="M22.1494 1.9096C21.5629 1.3042 20.8667 0.823954 20.1003 0.4963C19.334 0.168645 18.5126 0 17.6831 0C16.8535 0 16.0321 0.168645 15.2658 0.4963C14.4994 0.823954 13.8032 1.3042 13.2167 1.9096L11.9997 3.16542L10.7826 1.9096C9.59811 0.687308 7.99153 0.000633555 6.31633 0.000633568C4.64114 0.000633581 3.03455 0.687308 1.85001 1.9096C0.665469 3.13189 1.24812e-08 4.78966 0 6.51824C-1.24812e-08 8.24682 0.665469 9.9046 1.85001 11.1269L11.9997 21.6L22.1494 11.1269C22.7361 10.5218 23.2015 9.80331 23.519 9.01254C23.8366 8.22178 24 7.3742 24 6.51824C24 5.66228 23.8366 4.81471 23.519 4.02394C23.2015 3.23317 22.7361 2.51471 22.1494 1.9096Z" fill="#25282D"/>
<path fill-rule="evenodd" clip-rule="evenodd" d="M15.3711 3.99739L14.154 5.25322C13.5889 5.8363 12.8117 6.16542 11.9997 6.16542C11.1877 6.16542 10.4104 5.8363 9.84537 5.25322L8.62833 3.99739C7.99862 3.34762 7.16497 3.00063 6.31633 3.00063C5.46769 3.00063 4.63404 3.34762 4.00433 3.99739C3.37153 4.65036 3 5.55548 3 6.51824C3 7.481 3.37153 8.38612 4.00433 9.03909L11.9997 17.2892L19.9951 9.03909C20.3077 8.71664 20.561 8.32821 20.7351 7.89464C20.9093 7.46093 21 6.99295 21 6.51824C21 6.04353 20.9093 5.57555 20.7351 5.14184C20.561 4.70827 20.3082 4.32035 19.9955 3.9979L19.9946 3.99689C19.6822 3.67447 19.3166 3.4239 18.9209 3.25475C18.5255 3.0857 18.1052 3 17.6831 3C17.2609 3 16.8406 3.0857 16.4452 3.25475C16.0496 3.4239 15.6834 3.67497 15.3711 3.99739ZM11.9997 21.6L1.85001 11.1269C0.665469 9.9046 -1.24812e-08 8.24682 0 6.51824C1.24812e-08 4.78966 0.665469 3.13189 1.85001 1.9096C3.03455 0.687308 4.64114 0.000633581 6.31633 0.000633568C7.63975 0.000633557 8.92034 0.429195 9.98385 1.21184C10.2665 1.41987 10.5339 1.65292 10.7826 1.9096L11.9997 3.16542L13.2167 1.9096C13.4647 1.65359 13.7323 1.41997 14.0166 1.21079C14.4046 0.925322 14.8235 0.685399 15.2658 0.4963C16.0321 0.168645 16.8535 0 17.6831 0C18.5126 0 19.334 0.168645 20.1003 0.4963C20.8667 0.823954 21.5629 1.3042 22.1494 1.9096C22.7361 2.51471 23.2015 3.23317 23.519 4.02394C23.8366 4.81471 24 5.66228 24 6.51824C24 7.3742 23.8366 8.22178 23.519 9.01254C23.2015 9.80331 22.7361 10.5218 22.1494 11.1269L11.9997 21.6Z" fill="#25282D"/>
</svg>
