<svg width="16" height="16" viewBox="0 0 16 16" fill="none" xmlns="http://www.w3.org/2000/svg">
<path fill-rule="evenodd" clip-rule="evenodd" d="M8.00005 1.69999C4.52065 1.69999 1.70005 4.52059 1.70005 7.99999C1.70005 11.4794 4.52065 14.3 8.00005 14.3C11.4794 14.3 14.3 11.4794 14.3 7.99999C14.3 4.52059 11.4794 1.69999 8.00005 1.69999ZM0.300049 7.99999C0.300049 3.7474 3.74746 0.299988 8.00005 0.299988C12.2526 0.299988 15.7 3.7474 15.7 7.99999C15.7 12.2526 12.2526 15.7 8.00005 15.7C3.74746 15.7 0.300049 12.2526 0.300049 7.99999ZM8.70005 4.29999V4.99999V7.29999H11H11.7V8.69999H11H8.70005V11V11.7H7.30005V11V8.69999H5.00005H4.30005V7.29999H5.00005H7.30005V4.99999V4.29999H8.70005Z" fill="#FFFFFF"/>
</svg>
