<svg width="1031" height="56" viewBox="0 0 1031 56" fill="none" xmlns="http://www.w3.org/2000/svg">
<path d="M40.2128 0H45L4.78723 56H0L40.2128 0Z" fill="#001E60"/>
<path d="M64.2128 0H69L28.7872 56H24L64.2128 0Z" fill="#001E60"/>
<path d="M88.2128 0H93L52.7872 56H48L88.2128 0Z" fill="#001E60"/>
<path d="M136.213 0H141L100.787 56H96L136.213 0Z" fill="#001E60"/>
<path d="M160.213 0H165L124.787 56H120L160.213 0Z" fill="#001E60"/>
<path d="M112.213 0H117L76.7872 56H72L112.213 0Z" fill="#001E60"/>
<path d="M184.213 0H189L148.787 56H144L184.213 0Z" fill="#001E60"/>
<path d="M208.213 0H213L172.787 56H168L208.213 0Z" fill="#001E60"/>
<path d="M232.213 0H237L196.787 56H192L232.213 0Z" fill="#001E60"/>
<path d="M280.213 0H285L244.787 56H240L280.213 0Z" fill="#001E60"/>
<path d="M304.213 0H309L268.787 56H264L304.213 0Z" fill="#001E60"/>
<path d="M256.213 0H261L220.787 56H216L256.213 0Z" fill="#001E60"/>
<path d="M328.213 0H333L292.787 56H288L328.213 0Z" fill="#001E60"/>
<path d="M352.213 0H357L316.787 56H312L352.213 0Z" fill="#001E60"/>
<path d="M376.213 0H381L340.787 56H336L376.213 0Z" fill="#001E60"/>
<path d="M400.213 0H405L364.787 56H360L400.213 0Z" fill="#001E60"/>
<path d="M448.213 0H453L412.787 56H408L448.213 0Z" fill="#001E60"/>
<path d="M472.213 0H477L436.787 56H432L472.213 0Z" fill="#001E60"/>
<path d="M424.213 0H429L388.787 56H384L424.213 0Z" fill="#001E60"/>
<path d="M496.213 0H501L460.787 56H456L496.213 0Z" fill="#001E60"/>
<path d="M544.213 0H549L508.787 56H504L544.213 0Z" fill="#001E60"/>
<path d="M568.213 0H573L532.787 56H528L568.213 0Z" fill="#001E60"/>
<path d="M520.213 0H525L484.787 56H480L520.213 0Z" fill="#001E60"/>
<path d="M448.213 0H453L412.787 56H408L448.213 0Z" fill="#001E60"/>
<path d="M472.213 0H477L436.787 56H432L472.213 0Z" fill="#001E60"/>
<path d="M496.213 0H501L460.787 56H456L496.213 0Z" fill="#001E60"/>
<path d="M544.213 0H549L508.787 56H504L544.213 0Z" fill="#001E60"/>
<path d="M568.213 0H573L532.787 56H528L568.213 0Z" fill="#001E60"/>
<path d="M520.213 0H525L484.787 56H480L520.213 0Z" fill="#001E60"/>
<path d="M592.213 0H597L556.787 56H552L592.213 0Z" fill="#001E60"/>
<path d="M616.213 0H621L580.787 56H576L616.213 0Z" fill="#001E60"/>
<path d="M640.213 0H645L604.787 56H600L640.213 0Z" fill="#001E60"/>
<path d="M688.213 0H693L652.787 56H648L688.213 0Z" fill="#001E60"/>
<path d="M712.213 0H717L676.787 56H672L712.213 0Z" fill="#001E60"/>
<path d="M664.213 0H669L628.787 56H624L664.213 0Z" fill="#001E60"/>
<path d="M736.213 0H741L700.787 56H696L736.213 0Z" fill="#001E60"/>
<path d="M760.213 0H765L724.787 56H720L760.213 0Z" fill="#001E60"/>
<path d="M784.213 0H789L748.787 56H744L784.213 0Z" fill="#001E60"/>
<path d="M808.213 0H813L772.787 56H768L808.213 0Z" fill="#001E60"/>
<path d="M856.213 0H861L820.787 56H816L856.213 0Z" fill="#001E60"/>
<path d="M880.213 0H885L844.787 56H840L880.213 0Z" fill="#001E60"/>
<path d="M832.213 0H837L796.787 56H792L832.213 0Z" fill="#001E60"/>
<path d="M904.213 0H909L868.787 56H864L904.213 0Z" fill="#001E60"/>
<path d="M952.213 0H957L916.787 56H912L952.213 0Z" fill="#001E60"/>
<path d="M976.213 0H981L940.787 56H936L976.213 0Z" fill="#001E60"/>
<path d="M928.213 0H933L892.787 56H888L928.213 0Z" fill="#001E60"/>
</svg>
