<svg width="23" height="24" viewBox="0 0 23 24" fill="none" xmlns="http://www.w3.org/2000/svg">
<path fill-rule="evenodd" clip-rule="evenodd" d="M13.6907 2.41714C9.78327 2.41714 6.61568 5.58472 6.61568 9.49214C6.61568 13.3996 9.78327 16.5671 13.6907 16.5671C17.5981 16.5671 20.7657 13.3996 20.7657 9.49214C20.7657 5.58472 17.5981 2.41714 13.6907 2.41714ZM5.01569 9.49214C5.01569 4.70107 8.89962 0.817139 13.6907 0.817139C18.4818 0.817139 22.3657 4.70107 22.3657 9.49214C22.3657 14.2832 18.4818 18.1671 13.6907 18.1671C11.5832 18.1671 9.65127 17.4156 8.1482 16.166L1.13137 23.1828L0 22.0515L7.01683 15.0346C5.76719 13.5316 5.01569 11.5996 5.01569 9.49214Z" fill="#25282D"/>
</svg>
