<svg width="24" height="24" viewBox="0 0 24 24" fill="none" xmlns="http://www.w3.org/2000/svg">
<path fill-rule="evenodd" clip-rule="evenodd" d="M21.9707 8.30388L14.1916 8.35936C14.6215 7.70172 15.2189 6.78261 15.983 5.59501C16.3305 5.05479 16.5484 4.44147 16.6195 3.80305C16.7239 2.88838 16.6642 1.74454 15.7234 0.843797L15.7041 0.825376C15.572 0.698535 15.384 0.518041 15.1074 0.387427C14.8482 0.265023 14.5656 0.199797 14.279 0.196174C13.9923 0.192551 13.7083 0.250615 13.446 0.366427C13.1848 0.481771 12.9514 0.65171 12.7614 0.864797L9.56763 4.4047L9.5676 4.40473L9.37516 4.61815C7.70356 6.47262 6.75409 7.52597 5.07666 7.99813L4.49342 8.1623V8.7682V20.3943V20.9427L5.00489 21.1404L11.0885 23.4929C11.5851 23.6948 12.1155 23.8004 12.6516 23.804L12.6516 23.804H12.6569H18.0652C18.855 23.804 19.6217 23.5378 20.2416 23.0484C20.8614 22.559 21.2982 21.8749 21.4814 21.1067L21.4814 21.1067L21.4827 21.1011C21.8085 19.69 21.9658 18.2453 21.9513 16.7972C21.9521 15.526 22.2884 14.2508 22.7765 13.6282L22.7772 13.6273C23.531 12.6631 23.9404 11.4743 23.94 10.2504L23.94 10.2515L23.14 10.2496L23.94 10.2492V10.2504C23.9404 9.99299 23.8898 9.73808 23.7909 9.50045C23.6919 9.26247 23.5465 9.04657 23.3632 8.86531C23.1799 8.68406 22.9624 8.54107 22.7234 8.44469C22.4852 8.34865 22.2303 8.30078 21.9735 8.30385L21.9707 8.30388ZM0.859998 8.2758H0.0599976V9.0758V19.8186V20.6186H0.859998H2.50087H3.30087V19.8186V9.0758V8.2758H2.50087H0.859998Z" fill="#25282D"/>
</svg>
