<svg width="32" height="32" viewBox="0 0 32 32" fill="none" xmlns="http://www.w3.org/2000/svg">
<path fill-rule="evenodd" clip-rule="evenodd" d="M15.553 29.9695C15.5533 29.9697 15.5536 29.9698 16.0001 29.1884L15.5536 29.9698L16.0001 30.225L16.4466 29.9698L16.0001 29.1884C16.4466 29.9698 16.4469 29.9697 16.4472 29.9695L16.4481 29.969L16.4509 29.9674L16.4603 29.962L16.4939 29.9425C16.5228 29.9256 16.5646 29.901 16.6184 29.8689C16.726 29.8047 16.8817 29.7104 17.0787 29.5873C17.4726 29.341 18.0321 28.9792 18.7021 28.5125C20.0403 27.5802 21.8278 26.2235 23.619 24.527C27.1619 21.1715 30.9001 16.3163 30.9001 10.67V10.6691C30.8982 8.7204 30.1763 6.84106 28.8731 5.39224C27.5698 3.94341 25.7771 3.0273 23.8394 2.81991C21.9017 2.61253 19.9557 3.1285 18.3753 4.2687C17.3742 4.99103 16.5644 5.93161 16.0001 7.00816C15.4358 5.93161 14.626 4.99103 13.6248 4.2687C12.0445 3.1285 10.0985 2.61253 8.16081 2.81991C6.22313 3.0273 4.43042 3.94341 3.12714 5.39224C1.82386 6.84106 1.10195 8.7204 1.1001 10.6691V10.67C1.1001 16.3163 4.83825 21.1715 8.38122 24.527C10.1724 26.2235 11.9599 27.5802 13.2981 28.5125C13.9681 28.9792 14.5276 29.341 14.9215 29.5873C15.1185 29.7104 15.2742 29.8047 15.3818 29.8689C15.4356 29.901 15.4774 29.9256 15.5063 29.9425L15.5399 29.962L15.5493 29.9674L15.5521 29.969L15.553 29.9695Z" fill="#25282D"/>
</svg>
