<svg width="24" height="24" viewBox="0 0 24 24" fill="none" xmlns="http://www.w3.org/2000/svg">
<path fill-rule="evenodd" clip-rule="evenodd" d="M9.86977 21.5804C9.91728 21.581 9.96436 21.5714 10.0078 21.5522C10.0513 21.533 10.0901 21.5047 10.1217 21.4692L10.1257 21.4646L10.1257 21.4646L13.1402 18.1234L13.1403 18.1234C13.3489 17.8922 13.5497 17.6643 13.7458 17.4418C14.5484 16.5309 15.2722 15.7094 16.1286 15.1189C16.8601 14.6146 17.6756 14.2784 18.7062 14.1031L18.7062 5.16647L12.2846 2.60273L12.2785 2.60029L12.2785 2.60026C11.9923 2.48326 11.6865 2.42193 11.3773 2.41956L6.27838 2.41956C5.88299 2.41954 5.49914 2.55281 5.18882 2.79783C4.87922 3.04228 4.66085 3.38372 4.56877 3.76724C4.28929 4.97884 4.15447 6.21931 4.16715 7.46267L4.16723 7.47083L4.16719 7.47083C4.16719 8.83041 3.82603 10.4424 3.05826 11.4224C2.56084 12.0587 2.29081 12.8432 2.29122 13.6508L2.29122 13.653C2.29114 13.69 2.2984 13.7266 2.31259 13.7607C2.32678 13.7948 2.34762 13.8257 2.37388 13.8517C2.40015 13.8777 2.43132 13.8982 2.46558 13.912C2.49984 13.9258 2.53651 13.9326 2.57344 13.9321L2.57843 13.9321L11.3337 13.8696C11.6298 13.8675 11.9029 14.0292 12.0435 14.2898C12.1841 14.5504 12.1692 14.8674 12.0049 15.1137C12.0049 15.1137 12.0049 15.1137 12.0049 15.1137L12.0048 15.1137L12.0048 15.1138L12.0044 15.1144L12.0027 15.117L11.9957 15.1275L11.9672 15.1703L11.8524 15.3435C11.7502 15.4981 11.5967 15.731 11.3919 16.0435C10.9824 16.6685 10.3681 17.6118 9.55016 18.8832C9.35191 19.1914 9.22771 19.5412 9.18729 19.9054L9.18699 19.908C9.10931 20.5874 9.19748 21.0514 9.56272 21.401C9.70271 21.5351 9.7193 21.5427 9.73086 21.548C9.73141 21.5482 9.73194 21.5485 9.73248 21.5487C9.77544 21.569 9.82226 21.5798 9.86977 21.5804ZM9.84842 15.4803L2.59483 15.532C2.59389 15.532 2.59295 15.532 2.59201 15.532C2.34382 15.535 2.09749 15.4887 1.86727 15.3959C1.63618 15.3027 1.42594 15.1645 1.24878 14.9893C1.07162 14.8141 0.93109 14.6054 0.83537 14.3753C0.739793 14.1456 0.690799 13.8992 0.691226 13.6505C0.690877 12.4858 1.08041 11.3545 1.79776 10.437L1.79841 10.4361C2.24988 9.86024 2.56647 8.66928 2.56719 7.47488C2.55355 6.10532 2.70234 4.73897 3.01044 3.40443L3.01173 3.39885L3.01175 3.39885C3.18691 2.66422 3.60458 2.01008 4.19731 1.54208C4.79004 1.07407 5.52322 0.819529 6.27844 0.819557L11.3803 0.819558L11.3856 0.819558L11.3856 0.819575C11.8985 0.823004 12.406 0.924283 12.8809 1.11797C12.8819 1.1184 12.883 1.11882 12.884 1.11925L19.66 3.82446L22.5087 3.82446L23.3087 3.82446L23.3087 4.62446L23.3087 14.7585L23.3087 15.5585L22.5087 15.5585L20.6328 15.5585C18.8204 15.5585 17.8295 15.8896 17.0368 16.4362C16.3573 16.9047 15.799 17.5366 15.0164 18.4223C14.8055 18.6609 14.5784 18.918 14.3282 19.1952C14.3282 19.1953 14.3282 19.1953 14.3282 19.1953L11.3154 22.5345C11.1319 22.7403 10.9065 22.9044 10.6542 23.0158C10.4009 23.1277 10.1265 23.1838 9.84955 23.1803C9.57264 23.1768 9.29972 23.1138 9.04931 22.9955C8.7815 22.8691 8.59943 22.6942 8.47489 22.5747C8.46853 22.5686 8.46232 22.5626 8.45625 22.5568C7.55349 21.6925 7.49811 20.5956 7.59722 19.7274C7.66507 19.1182 7.87295 18.533 8.20459 18.0175C8.89843 16.9391 9.4466 16.0953 9.84842 15.4803ZM20.3062 5.42446L20.3062 13.9619C20.4131 13.9596 20.5219 13.9585 20.6328 13.9585L21.7087 13.9585L21.7087 5.42446L20.3062 5.42446ZM0.691226 13.6505C0.691226 13.6501 0.691228 13.6497 0.691228 13.6493L1.49123 13.6512L0.691226 13.6516C0.691226 13.6512 0.691226 13.6508 0.691226 13.6505Z" fill="#25282D"/>
</svg>
