<svg width="24" height="24" viewBox="0 0 24 24" fill="none" xmlns="http://www.w3.org/2000/svg">
<path fill-rule="evenodd" clip-rule="evenodd" d="M14.1302 2.41958C14.0827 2.41898 14.0356 2.42861 13.9921 2.4478C13.9487 2.46699 13.9098 2.49531 13.8783 2.53083L13.8742 2.53539L13.8742 2.53538L10.8597 5.87656L10.8597 5.87659C10.6511 6.10776 10.4503 6.33565 10.2542 6.5582C9.45155 7.46914 8.72774 8.2906 7.87138 8.88107C7.13988 9.38544 6.32438 9.72156 5.29372 9.89689V18.8335L11.7153 21.3973L11.7214 21.3997L11.7214 21.3997C12.0076 21.5167 12.3135 21.5781 12.6226 21.5804H17.7216C18.117 21.5805 18.5008 21.4472 18.8111 21.2022C19.1207 20.9577 19.3391 20.6163 19.4312 20.2328C19.7107 19.0212 19.8455 17.7807 19.8328 16.5373L19.8327 16.5292H19.8328C19.8328 15.1696 20.1739 13.5576 20.9417 12.5776C21.4391 11.9413 21.7091 11.1568 21.7087 10.3492L21.7087 10.347C21.7088 10.31 21.7015 10.2734 21.6874 10.2393C21.6732 10.2052 21.6523 10.1743 21.6261 10.1483C21.5998 10.1223 21.5686 10.1018 21.5344 10.088C21.5001 10.0742 21.4634 10.0674 21.4265 10.0679L21.4215 10.0679L12.6662 10.1304C12.3701 10.1325 12.097 9.97083 11.9564 9.71021C11.8158 9.44959 11.8307 9.13262 11.9951 8.8863C11.9951 8.8863 11.9951 8.8863 11.9951 8.8863L11.9951 8.88628L11.9952 8.88616L11.9956 8.88557L11.9973 8.88303L12.0043 8.87252L12.0327 8.82971L12.1475 8.65648C12.2497 8.50192 12.4033 8.269 12.608 7.95649C13.0175 7.33148 13.6318 6.38815 14.4498 5.11678C14.648 4.80864 14.7722 4.45879 14.8127 4.09463L14.813 4.09202C14.8906 3.41258 14.8025 2.94863 14.4372 2.59896C14.2972 2.46493 14.2806 2.45733 14.2691 2.45203C14.2685 2.45178 14.268 2.45153 14.2675 2.45128C14.2245 2.43099 14.1777 2.42018 14.1302 2.41958ZM14.1515 8.51972L21.4051 8.468C21.4061 8.46798 21.407 8.46797 21.4079 8.46796C21.6561 8.46502 21.9025 8.51129 22.1327 8.60411C22.3638 8.69728 22.574 8.8355 22.7512 9.01071C22.9283 9.18592 23.0689 9.39463 23.1646 9.62467C23.2602 9.85437 23.3091 10.1008 23.3087 10.3495C23.3091 11.5142 22.9195 12.6455 22.2022 13.563L22.2015 13.5639C21.7501 14.1398 21.4335 15.3307 21.4328 16.5251C21.4464 17.8947 21.2976 19.261 20.9895 20.5956L20.9882 20.6012L20.9882 20.6011C20.813 21.3358 20.3954 21.9899 19.8026 22.4579C19.2099 22.9259 18.4767 23.1805 17.7215 23.1804H12.6197H12.6143L12.6143 23.1804C12.1015 23.177 11.594 23.0757 11.1191 22.882C11.118 22.8816 11.117 22.8812 11.1159 22.8807L4.33993 20.1755H1.49122H0.691223V19.3755V9.2415V8.4415H1.49122H3.36719C5.17957 8.4415 6.17041 8.11043 6.96314 7.56384C7.64266 7.09531 8.20099 6.46342 8.98357 5.57773C9.19443 5.33909 9.42157 5.08202 9.67175 4.80475C9.67176 4.80474 9.67177 4.80473 9.67178 4.80472L12.6845 1.4655C12.868 1.25971 13.0935 1.09558 13.3457 0.984177C13.5991 0.872301 13.8735 0.816211 14.1504 0.819711C14.4273 0.823212 14.7002 0.886221 14.9506 1.00446C15.2184 1.13092 15.4005 1.30575 15.5251 1.42534C15.5314 1.43145 15.5376 1.43741 15.5437 1.44322C16.4465 2.30749 16.5018 3.40443 16.4027 4.27262C16.3349 4.88179 16.127 5.467 15.7954 5.98248C15.1015 7.06092 14.5533 7.9047 14.1515 8.51972ZM3.69372 18.5755V10.0381C3.58689 10.0404 3.47807 10.0415 3.36719 10.0415H2.29122V18.5755H3.69372ZM23.3087 10.3495C23.3087 10.3499 23.3087 10.3503 23.3087 10.3507L22.5087 10.3488L23.3087 10.3484C23.3087 10.3488 23.3087 10.3492 23.3087 10.3495Z" fill="#25282D"/>
</svg>
